HIERARCHY
ROOT Hips
{
	OFFSET 0.000000 0.000000 0.000000
	CHANNELS 6 Xposition Yposition Zposition Xrotation Yrotation Zrotation
	JOINT LeftUpLeg_virtual
	{
		OFFSET 0.000000 0.000000 0.000000
		CHANNELS 3 Xrotation Yrotation Zrotation
		JOINT LeftUpLeg
		{
			OFFSET 11.394100 -6.187798 -0.413800
			CHANNELS 3 Xrotation Yrotation Zrotation
			JOINT LeftLeg
			{
				OFFSET 0.430247 -32.302673 3.732800
				CHANNELS 3 Xrotation Yrotation Zrotation
				JOINT LeftFoot
				{
					OFFSET -0.430247 -48.264931 -6.423300
					CHANNELS 3 Xrotation Yrotation Zrotation
					JOINT LeftToeBase
					{
						OFFSET 4.230900 -16.068199 23.438400
						CHANNELS 3 Xrotation Yrotation Zrotation
						JOINT LeftToe_End
						{
							OFFSET 4.510700 0.695400 19.974600
							CHANNELS 3 Xrotation Yrotation Zrotation
							End Site
							{
								OFFSET 0 0 0
							}
						}
					}
				}
			}
		}
	}
	JOINT RightUpLeg_virtual
	{
		OFFSET 0.000000 0.000000 0.000000
		CHANNELS 3 Xrotation Yrotation Zrotation
		JOINT RightUpLeg
		{
			OFFSET -11.333700 -6.187798 -0.413800
			CHANNELS 3 Xrotation Yrotation Zrotation
			JOINT RightLeg
			{
				OFFSET -0.430392 -32.302628 3.733000
				CHANNELS 3 Xrotation Yrotation Zrotation
				JOINT RightFoot
				{
					OFFSET 0.430392 -48.264973 -6.423500
					CHANNELS 3 Xrotation Yrotation Zrotation
					JOINT RightToeBase
					{
						OFFSET -4.230900 -16.068199 23.438400
						CHANNELS 3 Xrotation Yrotation Zrotation
						JOINT RightToe_End
						{
							OFFSET -4.510700 0.695400 19.974600
							CHANNELS 3 Xrotation Yrotation Zrotation
							End Site
							{
								OFFSET 0 0 0
							}
						}
					}
				}
			}
		}
	}
	JOINT Spine_virtual
	{
		OFFSET 0.000000 0.000000 0.000000
		CHANNELS 3 Xrotation Yrotation Zrotation
		JOINT Spine
		{
			OFFSET -0.002400 12.777504 0.315300
			CHANNELS 3 Xrotation Yrotation Zrotation
			JOINT Spine1
			{
				OFFSET -0.002067 5.816869 0.032633
				CHANNELS 3 Xrotation Yrotation Zrotation
				JOINT Spine1_split
				{
					OFFSET -0.002067 5.816869 0.032633
					CHANNELS 3 Xrotation Yrotation Zrotation
					JOINT Spine2
					{
						OFFSET -0.002067 5.816869 0.032633
						CHANNELS 3 Xrotation Yrotation Zrotation
						JOINT Neck_virtual
						{
							OFFSET 0.000000 0.000000 0.000000
							CHANNELS 3 Xrotation Yrotation Zrotation
							JOINT Neck
							{
								OFFSET -0.003700 21.199493 -0.826900
								CHANNELS 3 Xrotation Yrotation Zrotation
								JOINT Head
								{
									OFFSET 0.000000 20.442200 4.834800
									CHANNELS 3 Xrotation Yrotation Zrotation
									JOINT HeadTop_End
									{
										OFFSET 0.000000 34.668396 4.968400
										CHANNELS 3 Xrotation Yrotation Zrotation
										End Site
										{
											OFFSET 0 0 0
										}
									}
								}
							}
						}
						JOINT LeftShoulder_virtual
						{
							OFFSET 0.000000 0.000000 0.000000
							CHANNELS 3 Xrotation Yrotation Zrotation
							JOINT LeftShoulder
							{
								OFFSET 3.288150 8.794197 -1.372250
								CHANNELS 3 Xrotation Yrotation Zrotation
								JOINT LeftShoulder_split
								{
									OFFSET 3.288150 8.794197 -1.372250
									CHANNELS 3 Xrotation Yrotation Zrotation
									JOINT LeftArm
									{
										OFFSET 11.953299 -2.279007 -0.146200
										CHANNELS 3 Xrotation Yrotation Zrotation
										JOINT LeftForeArm
										{
											OFFSET 18.448900 0.000000 0.000000
											CHANNELS 3 Xrotation Yrotation Zrotation
											JOINT LeftHand
											{
												OFFSET 29.527798 0.000000 0.000000
												CHANNELS 3 Xrotation Yrotation Zrotation
												End Site
												{
													OFFSET 0 0 0
												}
											}
										}
									}
								}
							}
						}
						JOINT RightShoulder_virtual
						{
							OFFSET 0.000000 0.000000 0.000000
							CHANNELS 3 Xrotation Yrotation Zrotation
							JOINT RightShoulder
							{
								OFFSET -3.249400 8.794197 -1.372250
								CHANNELS 3 Xrotation Yrotation Zrotation
								JOINT RightShoulder_split
								{
									OFFSET -3.249400 8.794197 -1.372250
									CHANNELS 3 Xrotation Yrotation Zrotation
									JOINT RightArm
									{
										OFFSET -11.953299 -2.279007 -0.146200
										CHANNELS 3 Xrotation Yrotation Zrotation
										JOINT RightForeArm
										{
											OFFSET -18.448900 0.000000 0.000000
											CHANNELS 3 Xrotation Yrotation Zrotation
											JOINT RightHand
											{
												OFFSET -29.527802 0.000000 0.000000
												CHANNELS 3 Xrotation Yrotation Zrotation
												End Site
												{
													OFFSET 0 0 0
												}
											}
										}
									}
								}
							}
						}
					}
				}
			}
		}
	}
}
MOTION
Frames: 11
Frame Time: 0.03333333
3.975184 154.042236 11.537502 0.000000 0.000000 0.000000 14.457268 -16.700967 3.951012 -88.970570 -4.984819 27.446704 66.188276 -10.444134 7.310782 25.330829 3.540387 -11.574026 -9.740443 3.052502 -0.924057 0.000000 0.000000 0.000000 14.211038 -17.239666 3.813067 -137.673200 -16.097007 -10.920328 97.821703 7.667952 -2.322531 39.057491 17.512021 26.601379 -4.869118 -32.776305 -51.912443 0.000000 0.000000 0.000000 17.476470 -11.191648 4.032222 23.740230 0.867562 -9.939762 12.645870 -5.119352 -0.108539 0.261116 0.436143 -0.013080 0.000000 0.000000 0.000000 15.219881 -2.289916 -0.544023 2.792765 -5.683758 -8.135489 -25.548183 51.472917 -10.345311 0.000000 0.000000 0.000000 14.898219 -4.015657 -1.750021 10.867900 -9.548906 -6.719356 5.866379 -7.073939 -0.271545 -73.722487 -18.464771 3.395297 36.738420 -3.826862 17.128842 0.000000 0.000000 0.000000 18.557139 -2.628385 -0.691382 3.678430 21.646500 -6.987991 10.956061 5.085776 1.886786 -46.519910 -2.154771 3.662315 -53.513846 42.086642 26.541096 0.000000 0.000000 0.000000 
4.031723 153.953247 11.409805 0.000000 0.000000 0.000000 14.544539 -16.866124 3.997439 -89.028210 -5.082523 27.430576 66.286310 -10.539441 7.399130 25.431953 3.566836 -11.777501 -9.714459 2.987833 -0.937436 0.000000 0.000000 0.000000 14.256655 -17.350210 3.860585 -137.555516 -16.107097 -11.159617 97.597721 7.863000 -2.482753 39.035037 17.608281 26.636951 -4.747301 -32.810712 -51.955719 0.000000 0.000000 0.000000 17.457929 -11.351723 4.085534 23.560825 0.962437 -9.879213 12.658034 -5.068172 -0.092300 0.258820 0.460197 -0.014520 0.000000 0.000000 0.000000 15.270843 -2.251039 -0.582220 2.906799 -5.865855 -8.385568 -24.571587 50.728706 -11.172410 0.000000 0.000000 0.000000 14.900247 -3.997480 -1.800509 10.762215 -9.813093 -7.378606 5.880243 -7.169824 -0.409333 -72.717548 -18.027938 3.572060 36.848765 -3.976012 16.984746 0.000000 0.000000 0.000000 18.634925 -2.570117 -0.690685 3.537464 21.643251 -6.384053 10.719192 5.015459 2.080800 -45.253562 -1.862193 3.561983 -52.790044 41.865819 25.755660 0.000000 0.000000 0.000000 
4.078817 153.865372 11.265717 0.000000 0.000000 0.000000 14.642348 -16.980897 4.066747 -89.022439 -5.129684 27.414011 66.277977 -10.591445 7.420392 25.457893 3.667531 -11.908809 -9.717731 2.916494 -0.935897 0.000000 0.000000 0.000000 14.335088 -17.413820 3.925980 -137.357331 -16.114754 -11.400299 97.306830 8.062923 -2.661444 38.963535 17.682252 26.678840 -4.635024 -32.830964 -51.918976 0.000000 0.000000 0.000000 17.457784 -11.452690 4.142871 23.376094 1.045286 -9.828796 12.623295 -5.025084 -0.070563 0.258402 0.476890 -0.016629 0.000000 0.000000 0.000000 15.296535 -2.207101 -0.621837 2.962606 -6.075032 -8.641199 -23.721641 49.943040 -11.965291 0.000000 0.000000 0.000000 14.871897 -3.975626 -1.824093 10.709924 -9.981092 -7.869567 5.852953 -7.252945 -0.630638 -71.630291 -17.489464 3.945997 36.943913 -4.077401 16.839690 0.000000 0.000000 0.000000 18.661868 -2.518831 -0.694600 3.412613 21.519517 -5.809808 10.438193 5.024099 2.368510 -44.039400 -1.951731 3.315555 -52.227045 41.644124 25.157178 0.000000 0.000000 0.000000 
4.116359 153.786423 11.104538 0.000000 0.000000 0.000000 14.759412 -17.029687 4.163005 -88.952695 -5.116023 27.405811 66.141940 -10.610830 7.362331 25.393067 3.821809 -11.964166 -9.746291 2.838867 -0.894782 0.000000 0.000000 0.000000 14.436704 -17.431763 4.014890 -137.095270 -16.109706 -11.633413 96.977437 8.257409 -2.851215 38.853675 17.736365 26.734585 -4.510101 -32.846591 -51.810533 0.000000 0.000000 0.000000 17.463855 -11.495301 4.214948 23.202059 1.116310 -9.788026 12.541934 -4.985607 -0.048783 0.264647 0.486699 -0.012288 0.000000 0.000000 0.000000 15.288726 -2.152174 -0.669432 2.925215 -6.308363 -8.863459 -22.938608 49.190961 -12.800130 0.000000 0.000000 0.000000 14.805837 -3.941261 -1.825540 10.700623 -10.092326 -8.246034 5.779103 -7.292704 -0.917566 -70.526143 -16.783660 4.413438 37.089000 -4.182018 16.762420 0.000000 0.000000 0.000000 18.625830 -2.468011 -0.708418 3.298167 21.310200 -5.228567 10.226753 5.195782 2.668367 -42.964250 -2.328458 3.057236 -51.811793 41.437614 24.730254 0.000000 0.000000 0.000000 
4.132814 153.721649 10.944710 0.000000 0.000000 0.000000 14.880013 -17.011636 4.281885 -88.832006 -5.054401 27.406749 65.888588 -10.629049 7.232007 25.237452 3.981229 -11.979075 -9.770923 2.761610 -0.804932 0.000000 0.000000 0.000000 14.545757 -17.419270 4.127867 -136.803785 -16.077567 -11.854392 96.672489 8.440831 -3.044991 38.719793 17.777620 26.810893 -4.365065 -32.861754 -51.656106 0.000000 0.000000 0.000000 17.477044 -11.492947 4.302582 23.052011 1.180211 -9.751656 12.408225 -4.942949 -0.026770 0.271911 0.491347 -0.006177 0.000000 0.000000 0.000000 15.231472 -2.082120 -0.721422 2.789166 -6.553196 -9.040900 -22.135458 48.520725 -13.753954 0.000000 0.000000 0.000000 14.689198 -3.888725 -1.806880 10.711264 -10.171388 -8.601731 5.706992 -7.239314 -1.132100 -69.467716 -15.845624 4.924073 37.371168 -4.377864 16.816689 0.000000 0.000000 0.000000 18.523292 -2.410800 -0.733519 3.180849 21.053484 -4.622066 10.106785 5.478904 2.885050 -42.020560 -2.881541 2.816493 -51.539969 41.293910 24.462877 0.000000 0.000000 0.000000 
4.130888 153.675537 10.784641 0.000000 0.000000 0.000000 14.994198 -16.956571 4.413877 -88.685396 -4.957978 27.410212 65.560254 -10.666735 7.050657 25.020188 4.104227 -11.978620 -9.760002 2.690711 -0.671947 0.000000 0.000000 0.000000 14.650570 -17.381079 4.256571 -136.511412 -16.010134 -12.059905 96.420701 8.614126 -3.234703 38.574876 17.825079 26.917799 -4.215271 -32.872871 -51.500460 0.000000 0.000000 0.000000 17.497102 -11.483132 4.405999 22.933485 1.240713 -9.706442 12.228468 -4.898890 0.004042 0.282566 0.492954 0.004829 0.000000 0.000000 0.000000 15.112166 -2.003352 -0.767420 2.565917 -6.794919 -9.183499 -21.252441 47.983486 -14.834903 0.000000 0.000000 0.000000 14.516370 -3.816451 -1.767032 10.727157 -10.211044 -9.015032 5.605685 -7.145919 -1.216761 -68.492966 -14.653715 5.467099 37.824819 -4.709642 17.031985 0.000000 0.000000 0.000000 18.358758 -2.349891 -0.762189 3.051533 20.774053 -3.968223 10.106789 5.760254 2.922210 -41.203546 -3.545534 2.543587 -51.424160 41.276114 24.359537 0.000000 0.000000 0.000000 
4.112530 153.655426 10.644566 0.000000 0.000000 0.000000 15.101707 -16.881268 4.546323 -88.521191 -4.843510 27.401244 65.203042 -10.723197 6.842665 24.755756 4.180264 -11.988877 -9.684951 2.636936 -0.526656 0.000000 0.000000 0.000000 14.750948 -17.342974 4.392362 -136.271372 -15.898911 -12.251866 96.232871 8.774633 -3.403956 38.441896 17.890043 27.066257 -4.059605 -32.885882 -51.370266 0.000000 0.000000 0.000000 17.525821 -11.477618 4.516324 22.840943 1.294021 -9.637975 12.001457 -4.861937 0.051103 0.290689 0.495733 0.006090 0.000000 0.000000 0.000000 14.924556 -1.929663 -0.794873 2.315135 -7.009603 -9.323305 -20.261765 47.568084 -16.018829 0.000000 0.000000 0.000000 14.295426 -3.740218 -1.705505 10.741653 -10.159235 -9.504335 5.441952 -7.008120 -1.270439 -67.629617 -13.202599 6.034003 38.381155 -5.128768 17.365061 0.000000 0.000000 0.000000 18.135257 -2.292922 -0.775239 2.907083 20.470121 -3.303800 10.180760 5.943016 2.811920 -40.440293 -4.303402 2.216217 -51.468143 41.436838 24.420182 0.000000 0.000000 0.000000 
4.076221 153.662384 10.524582 0.000000 0.000000 0.000000 15.188838 -16.813380 4.671281 -88.314284 -4.722687 27.366288 64.834963 -10.773800 6.632321 24.427514 4.229821 -12.002113 -9.539232 2.607086 -0.405272 0.000000 0.000000 0.000000 14.852117 -17.310956 4.527203 -136.084826 -15.749296 -12.416477 96.096882 8.916502 -3.539113 38.333166 17.973416 27.243548 -3.888776 -32.906847 -51.265552 0.000000 0.000000 0.000000 17.572712 -11.484517 4.627585 22.763132 1.334157 -9.540802 11.734798 -4.844036 0.118335 0.290260 0.498724 -0.004232 0.000000 0.000000 0.000000 14.668951 -1.879765 -0.787810 2.095679 -7.177211 -9.498592 -19.204907 47.285550 -17.206112 0.000000 0.000000 0.000000 14.032613 -3.677949 -1.626700 10.756811 -9.949516 -10.054516 5.214520 -6.829121 -1.278251 -66.920220 -11.530987 6.622338 38.985507 -5.580889 17.772258 0.000000 0.000000 0.000000 17.874567 -2.252866 -0.761736 2.759546 20.147472 -2.669305 10.217299 6.072576 2.646167 -39.684236 -5.234329 1.772904 -51.696595 41.797810 24.673406 0.000000 0.000000 0.000000 
4.029393 153.696808 10.426086 0.000000 0.000000 0.000000 15.275003 -16.772361 4.790863 -88.037279 -4.602070 27.290805 64.457848 -10.785724 6.446125 24.009059 4.283279 -11.985350 -9.364994 2.599309 -0.327373 0.000000 0.000000 0.000000 14.963158 -17.285768 4.654804 -135.934616 -15.571518 -12.533381 95.976882 9.042311 -3.630916 38.260237 18.075961 27.438680 -3.753566 -32.919432 -51.185707 0.000000 0.000000 0.000000 17.636293 -11.495310 4.736267 22.688135 1.349194 -9.422135 11.448008 -4.854012 0.200163 0.285078 0.499745 -0.013261 0.000000 0.000000 0.000000 14.372967 -1.866454 -0.742695 1.975907 -7.296472 -9.730760 -18.134379 47.138749 -18.312516 0.000000 0.000000 0.000000 13.733967 -3.649068 -1.546642 10.787597 -9.522787 -10.597775 4.927222 -6.660029 -1.272997 -66.370656 -9.647064 7.273302 39.545095 -5.985759 18.205789 0.000000 0.000000 0.000000 17.585130 -2.241093 -0.711287 2.630544 19.801046 -2.114898 10.250024 6.231911 2.426024 -38.991989 -6.443313 1.211918 -52.102807 42.309149 25.115616 0.000000 0.000000 0.000000 
3.972333 153.756836 10.355507 0.000000 0.000000 0.000000 15.375709 -16.750216 4.908478 -87.660704 -4.504169 27.165418 64.070999 -10.759094 6.308943 23.504233 4.345027 -11.957590 -9.228298 2.612511 -0.297685 0.000000 0.000000 0.000000 15.080426 -17.280705 4.772715 -135.810225 -15.384267 -12.584993 95.857197 9.154349 -3.687005 38.226462 18.186625 27.629012 -3.682093 -32.911536 -51.115899 0.000000 0.000000 0.000000 17.731468 -11.495435 4.838136 22.615578 1.331798 -9.298753 11.158369 -4.891194 0.280445 0.274682 0.509804 -0.026403 0.000000 0.000000 0.000000 14.059331 -1.898188 -0.670763 2.016831 -7.381396 -10.016327 -17.116772 47.150442 -19.270861 0.000000 0.000000 0.000000 13.418894 -3.669423 -1.484349 10.857495 -8.834312 -11.042080 4.676587 -6.513297 -1.180281 -66.026394 -7.651268 7.952376 40.025305 -6.303756 18.641207 0.000000 0.000000 0.000000 17.287844 -2.261641 -0.627898 2.544032 19.418448 -1.729504 10.284627 6.431073 2.229844 -38.390762 -8.011502 0.553593 -52.633318 42.883442 25.695199 0.000000 0.000000 0.000000 
3.903238 153.836029 10.307068 0.000000 0.000000 0.000000 15.471242 -16.731248 5.013692 -87.192829 -4.434707 27.005040 63.671365 -10.714308 6.236085 22.952031 4.402482 -11.945331 -9.187391 2.637022 -0.295158 0.000000 0.000000 0.000000 15.201776 -17.282177 4.876313 -135.672569 -15.217385 -12.549407 95.714651 9.229594 -3.706242 38.198325 18.266002 27.773924 -3.682430 -32.874237 -51.054076 0.000000 0.000000 0.000000 17.863219 -11.471279 4.928618 22.545601 1.280173 -9.190213 10.884503 -4.952532 0.340465 0.269578 0.518898 -0.031742 0.000000 0.000000 0.000000 13.754336 -1.972127 -0.592625 2.225938 -7.431579 -10.330895 -16.256909 47.317194 -19.988738 0.000000 0.000000 0.000000 13.110934 -3.738733 -1.457837 10.973544 -7.917457 -11.294952 4.473857 -6.478314 -1.058403 -65.943721 -5.719950 8.620226 40.439248 -6.549396 19.075069 0.000000 0.000000 0.000000 17.010637 -2.312125 -0.536185 2.514062 19.022705 -1.555485 10.341279 6.725706 2.140547 -37.929656 -9.923679 -0.202770 -53.223901 43.431008 26.345337 0.000000 0.000000 0.000000 
